<svg xmlns="http://www.w3.org/2000/svg" viewBox="0 0 128 128" width="128" height="128">
  <defs>
    <linearGradient id="bg" x1="0%" y1="0%" x2="100%" y2="100%">
      <stop offset="0%" style="stop-color:#6366f1;stop-opacity:1" />
      <stop offset="100%" style="stop-color:#8b5cf6;stop-opacity:1" />
    </linearGradient>
    <linearGradient id="wing" x1="0%" y1="0%" x2="100%" y2="100%">
      <stop offset="0%" style="stop-color:#c4b5fd;stop-opacity:1" />
      <stop offset="100%" style="stop-color:#a78bfa;stop-opacity:1" />
    </linearGradient>
  </defs>
  <!-- Background circle -->
  <circle cx="64" cy="64" r="60" fill="url(#bg)" />
  <!-- Mercury winged helmet symbol -->
  <!-- Central helmet shape -->
  <ellipse cx="64" cy="68" rx="18" ry="22" fill="#e0e7ff" />
  <ellipse cx="64" cy="68" rx="14" ry="18" fill="#c7d2fe" />
  <!-- Helmet crest -->
  <rect x="60" y="42" width="8" height="12" rx="4" fill="#e0e7ff"/>
  <!-- Left wing -->
  <path d="M46 56 C36 44, 20 42, 16 50 C12 58, 24 56, 34 58 C38 59, 42 58, 46 56Z" fill="url(#wing)" />
  <path d="M44 62 C34 54, 18 54, 16 60 C14 66, 28 62, 36 63 C40 63, 42 63, 44 62Z" fill="url(#wing)" opacity="0.8"/>
  <!-- Right wing -->
  <path d="M82 56 C92 44, 108 42, 112 50 C116 58, 104 56, 94 58 C90 59, 86 58, 82 56Z" fill="url(#wing)" />
  <path d="M84 62 C94 54, 110 54, 112 60 C114 66, 100 62, 92 63 C88 63, 86 63, 84 62Z" fill="url(#wing)" opacity="0.8"/>
  <!-- Face details -->
  <circle cx="57" cy="66" r="3" fill="#6366f1" />
  <circle cx="71" cy="66" r="3" fill="#6366f1" />
  <!-- M letter -->
  <text x="64" y="104" font-family="Arial, sans-serif" font-size="20" font-weight="bold" fill="#e0e7ff" text-anchor="middle">M</text>
</svg>
